<svg width="51" height="50" viewBox="0 0 51 50" fill="none" xmlns="http://www.w3.org/2000/svg">
<path d="M6.87598 25C16.1502 25 25.4244 15.7259 25.4244 6.45166C25.4244 15.7259 34.6986 25 43.9728 25C34.6986 25 25.4244 34.2742 25.4244 43.5484C25.4244 34.2742 16.1502 25 6.87598 25Z" stroke="white" stroke-width="3.0914" stroke-linejoin="round"/>
<path d="M4.81445 40.457C6.53189 40.457 9.96678 37.0221 9.96678 35.3047C9.96678 37.0221 13.4017 40.457 15.1191 40.457C13.4017 40.457 9.96678 43.892 9.96678 45.6093C9.96678 43.892 6.53189 40.457 4.81445 40.457Z" stroke="white" stroke-width="3.0914" stroke-linejoin="round"/>
<path d="M33.668 10.5734C35.7289 10.5734 39.8508 6.45156 39.8508 4.39062C39.8508 6.45156 43.9726 10.5734 46.0336 10.5734C43.9726 10.5734 39.8508 14.6953 39.8508 16.7562C39.8508 14.6953 35.7289 10.5734 33.668 10.5734Z" stroke="white" stroke-width="3.0914" stroke-linejoin="round"/>
</svg>
